<mxfile host="app.diagrams.net" agent="Mozilla/5.0 (X11; Ubuntu; Linux x86_64; rv:141.0) Gecko/20100101 Firefox/141.0" version="28.0.7">
  <diagram name="Page-1" id="IBkn1AV6_XAYANT_Cgsg">
    <mxGraphModel dx="2011" dy="1200" grid="1" gridSize="10" guides="1" tooltips="1" connect="1" arrows="1" fold="1" page="1" pageScale="1" pageWidth="850" pageHeight="1100" math="0" shadow="0">
      <root>
        <mxCell id="0" />
        <mxCell id="1" parent="0" />
        <mxCell id="cQGHiPyzRJz7bQC3EvLL-22" style="edgeStyle=orthogonalEdgeStyle;rounded=0;orthogonalLoop=1;jettySize=auto;html=1;exitX=0.855;exitY=1;exitDx=0;exitDy=-4.35;exitPerimeter=0;entryX=0.575;entryY=-0.017;entryDx=0;entryDy=0;entryPerimeter=0;dashed=1;dashPattern=1 4;" edge="1" parent="1" source="cQGHiPyzRJz7bQC3EvLL-16" target="cQGHiPyzRJz7bQC3EvLL-10">
          <mxGeometry relative="1" as="geometry" />
        </mxCell>
        <mxCell id="cQGHiPyzRJz7bQC3EvLL-20" style="edgeStyle=orthogonalEdgeStyle;rounded=0;orthogonalLoop=1;jettySize=auto;html=1;exitX=0.25;exitY=1;exitDx=0;exitDy=0;entryX=0.25;entryY=0;entryDx=0;entryDy=0;dashed=1;dashPattern=1 4;" edge="1" parent="1" source="cQGHiPyzRJz7bQC3EvLL-15" target="cQGHiPyzRJz7bQC3EvLL-9">
          <mxGeometry relative="1" as="geometry" />
        </mxCell>
        <mxCell id="dDHguk34ElmMT3qhyhON-37" value="" style="rounded=1;whiteSpace=wrap;html=1;" parent="1" vertex="1">
          <mxGeometry x="410" y="330" width="120" height="60" as="geometry" />
        </mxCell>
        <mxCell id="dDHguk34ElmMT3qhyhON-1" value="Actor" style="shape=umlActor;verticalLabelPosition=bottom;verticalAlign=top;html=1;outlineConnect=0;" parent="1" vertex="1">
          <mxGeometry x="10" y="480" width="30" height="60" as="geometry" />
        </mxCell>
        <mxCell id="dDHguk34ElmMT3qhyhON-2" value="LB" style="rounded=1;whiteSpace=wrap;html=1;" parent="1" vertex="1">
          <mxGeometry x="120" y="140" width="40" height="680" as="geometry" />
        </mxCell>
        <mxCell id="dDHguk34ElmMT3qhyhON-22" value="" style="edgeStyle=orthogonalEdgeStyle;rounded=0;orthogonalLoop=1;jettySize=auto;html=1;startArrow=classic;startFill=1;" parent="1" source="dDHguk34ElmMT3qhyhON-3" target="dDHguk34ElmMT3qhyhON-4" edge="1">
          <mxGeometry relative="1" as="geometry" />
        </mxCell>
        <mxCell id="dDHguk34ElmMT3qhyhON-3" value="Problem service" style="rounded=1;whiteSpace=wrap;html=1;" parent="1" vertex="1">
          <mxGeometry x="200" y="130" width="120" height="60" as="geometry" />
        </mxCell>
        <mxCell id="dDHguk34ElmMT3qhyhON-4" value="Problem RDBMS" style="shape=cylinder3;whiteSpace=wrap;html=1;boundedLbl=1;backgroundOutline=1;size=15;" parent="1" vertex="1">
          <mxGeometry x="400" y="120" width="80" height="80" as="geometry" />
        </mxCell>
        <mxCell id="dDHguk34ElmMT3qhyhON-5" value="Gen Evaluation Queue" style="rounded=1;whiteSpace=wrap;html=1;" parent="1" vertex="1">
          <mxGeometry x="200" y="340" width="120" height="60" as="geometry" />
        </mxCell>
        <mxCell id="dDHguk34ElmMT3qhyhON-11" value="Evaluation Workers" style="rounded=1;whiteSpace=wrap;html=1;" parent="1" vertex="1">
          <mxGeometry x="400" y="340" width="120" height="60" as="geometry" />
        </mxCell>
        <mxCell id="dDHguk34ElmMT3qhyhON-31" value="CDC" style="shape=process;whiteSpace=wrap;html=1;backgroundOutline=1;" parent="1" vertex="1">
          <mxGeometry x="640" y="500" width="80" height="60" as="geometry" />
        </mxCell>
        <mxCell id="dDHguk34ElmMT3qhyhON-44" value="Solutions Object store" style="shape=cylinder3;whiteSpace=wrap;html=1;boundedLbl=1;backgroundOutline=1;size=15;" parent="1" vertex="1">
          <mxGeometry x="40" y="850" width="140" height="80" as="geometry" />
        </mxCell>
        <mxCell id="dDHguk34ElmMT3qhyhON-46" style="edgeStyle=orthogonalEdgeStyle;rounded=0;orthogonalLoop=1;jettySize=auto;html=1;entryX=0;entryY=0.5;entryDx=0;entryDy=0;entryPerimeter=0;" parent="1" target="dDHguk34ElmMT3qhyhON-44" edge="1">
          <mxGeometry relative="1" as="geometry">
            <Array as="points">
              <mxPoint x="25" y="890" />
            </Array>
            <mxPoint x="25" y="560" as="sourcePoint" />
          </mxGeometry>
        </mxCell>
        <mxCell id="cQGHiPyzRJz7bQC3EvLL-1" value="Problems Object store + CDN" style="shape=cylinder3;whiteSpace=wrap;html=1;boundedLbl=1;backgroundOutline=1;size=15;" vertex="1" parent="1">
          <mxGeometry x="40" y="30" width="140" height="80" as="geometry" />
        </mxCell>
        <mxCell id="cQGHiPyzRJz7bQC3EvLL-2" style="edgeStyle=orthogonalEdgeStyle;rounded=0;orthogonalLoop=1;jettySize=auto;html=1;entryX=0.5;entryY=0;entryDx=0;entryDy=0;entryPerimeter=0;" edge="1" parent="1" source="cQGHiPyzRJz7bQC3EvLL-1" target="dDHguk34ElmMT3qhyhON-1">
          <mxGeometry relative="1" as="geometry">
            <Array as="points">
              <mxPoint x="25" y="70" />
            </Array>
          </mxGeometry>
        </mxCell>
        <mxCell id="cQGHiPyzRJz7bQC3EvLL-4" value="Problem cache" style="shape=cylinder3;whiteSpace=wrap;html=1;boundedLbl=1;backgroundOutline=1;size=15;" vertex="1" parent="1">
          <mxGeometry x="400" y="10" width="80" height="80" as="geometry" />
        </mxCell>
        <mxCell id="cQGHiPyzRJz7bQC3EvLL-5" style="edgeStyle=orthogonalEdgeStyle;rounded=0;orthogonalLoop=1;jettySize=auto;html=1;entryX=0;entryY=0.5;entryDx=0;entryDy=0;entryPerimeter=0;strokeColor=none;startArrow=classic;startFill=1;" edge="1" parent="1" source="dDHguk34ElmMT3qhyhON-3" target="cQGHiPyzRJz7bQC3EvLL-4">
          <mxGeometry relative="1" as="geometry">
            <Array as="points">
              <mxPoint x="250" y="50" />
            </Array>
          </mxGeometry>
        </mxCell>
        <mxCell id="cQGHiPyzRJz7bQC3EvLL-6" style="edgeStyle=orthogonalEdgeStyle;rounded=0;orthogonalLoop=1;jettySize=auto;html=1;entryX=0;entryY=0.5;entryDx=0;entryDy=0;entryPerimeter=0;startArrow=classic;startFill=1;" edge="1" parent="1" source="dDHguk34ElmMT3qhyhON-3" target="cQGHiPyzRJz7bQC3EvLL-4">
          <mxGeometry relative="1" as="geometry">
            <Array as="points">
              <mxPoint x="290" y="50" />
            </Array>
          </mxGeometry>
        </mxCell>
        <mxCell id="cQGHiPyzRJz7bQC3EvLL-7" style="edgeStyle=orthogonalEdgeStyle;rounded=0;orthogonalLoop=1;jettySize=auto;html=1;entryX=0;entryY=0.5;entryDx=0;entryDy=0;exitX=1;exitY=0.5;exitDx=0;exitDy=0;" edge="1" parent="1" source="dDHguk34ElmMT3qhyhON-5" target="dDHguk34ElmMT3qhyhON-11">
          <mxGeometry relative="1" as="geometry">
            <mxPoint x="270" y="250" as="targetPoint" />
            <Array as="points">
              <mxPoint x="350" y="370" />
              <mxPoint x="350" y="370" />
            </Array>
          </mxGeometry>
        </mxCell>
        <mxCell id="cQGHiPyzRJz7bQC3EvLL-8" value="" style="rounded=1;whiteSpace=wrap;html=1;" vertex="1" parent="1">
          <mxGeometry x="410" y="430" width="120" height="60" as="geometry" />
        </mxCell>
        <mxCell id="cQGHiPyzRJz7bQC3EvLL-9" value="Contest Evaluation Queue" style="rounded=1;whiteSpace=wrap;html=1;" vertex="1" parent="1">
          <mxGeometry x="200" y="440" width="120" height="60" as="geometry" />
        </mxCell>
        <mxCell id="cQGHiPyzRJz7bQC3EvLL-10" value="&lt;div&gt;Contest&amp;nbsp;&lt;/div&gt;&lt;div&gt;Evaluation Workers&lt;/div&gt;" style="rounded=1;whiteSpace=wrap;html=1;" vertex="1" parent="1">
          <mxGeometry x="400" y="440" width="120" height="60" as="geometry" />
        </mxCell>
        <mxCell id="cQGHiPyzRJz7bQC3EvLL-11" style="edgeStyle=orthogonalEdgeStyle;rounded=0;orthogonalLoop=1;jettySize=auto;html=1;entryX=0;entryY=0.5;entryDx=0;entryDy=0;exitX=1;exitY=0.5;exitDx=0;exitDy=0;" edge="1" parent="1" source="cQGHiPyzRJz7bQC3EvLL-9" target="cQGHiPyzRJz7bQC3EvLL-10">
          <mxGeometry relative="1" as="geometry">
            <mxPoint x="280" y="340" as="targetPoint" />
            <Array as="points">
              <mxPoint x="340" y="470" />
              <mxPoint x="340" y="470" />
            </Array>
          </mxGeometry>
        </mxCell>
        <mxCell id="cQGHiPyzRJz7bQC3EvLL-14" value="" style="edgeStyle=orthogonalEdgeStyle;rounded=0;orthogonalLoop=1;jettySize=auto;html=1;startArrow=classic;startFill=1;" edge="1" parent="1" source="cQGHiPyzRJz7bQC3EvLL-15" target="cQGHiPyzRJz7bQC3EvLL-16">
          <mxGeometry relative="1" as="geometry" />
        </mxCell>
        <mxCell id="cQGHiPyzRJz7bQC3EvLL-19" style="edgeStyle=orthogonalEdgeStyle;rounded=0;orthogonalLoop=1;jettySize=auto;html=1;entryX=0.5;entryY=0;entryDx=0;entryDy=0;" edge="1" parent="1" source="cQGHiPyzRJz7bQC3EvLL-15" target="dDHguk34ElmMT3qhyhON-5">
          <mxGeometry relative="1" as="geometry" />
        </mxCell>
        <mxCell id="cQGHiPyzRJz7bQC3EvLL-15" value="Solution service" style="rounded=1;whiteSpace=wrap;html=1;" vertex="1" parent="1">
          <mxGeometry x="200" y="230" width="120" height="60" as="geometry" />
        </mxCell>
        <mxCell id="cQGHiPyzRJz7bQC3EvLL-21" style="edgeStyle=orthogonalEdgeStyle;rounded=0;orthogonalLoop=1;jettySize=auto;html=1;entryX=0.25;entryY=0;entryDx=0;entryDy=0;" edge="1" parent="1" source="cQGHiPyzRJz7bQC3EvLL-16" target="dDHguk34ElmMT3qhyhON-37">
          <mxGeometry relative="1" as="geometry" />
        </mxCell>
        <mxCell id="cQGHiPyzRJz7bQC3EvLL-16" value="&lt;div&gt;Solution&amp;nbsp;&lt;/div&gt;&lt;div&gt;DDB&lt;/div&gt;" style="shape=cylinder3;whiteSpace=wrap;html=1;boundedLbl=1;backgroundOutline=1;size=15;" vertex="1" parent="1">
          <mxGeometry x="400" y="220" width="80" height="80" as="geometry" />
        </mxCell>
        <mxCell id="cQGHiPyzRJz7bQC3EvLL-17" value="Problem Search idx" style="shape=cylinder3;whiteSpace=wrap;html=1;boundedLbl=1;backgroundOutline=1;size=15;" vertex="1" parent="1">
          <mxGeometry x="200" y="20" width="80" height="80" as="geometry" />
        </mxCell>
        <mxCell id="cQGHiPyzRJz7bQC3EvLL-18" style="edgeStyle=orthogonalEdgeStyle;rounded=0;orthogonalLoop=1;jettySize=auto;html=1;entryX=0.333;entryY=-0.017;entryDx=0;entryDy=0;entryPerimeter=0;" edge="1" parent="1" source="cQGHiPyzRJz7bQC3EvLL-17" target="dDHguk34ElmMT3qhyhON-3">
          <mxGeometry relative="1" as="geometry" />
        </mxCell>
        <mxCell id="cQGHiPyzRJz7bQC3EvLL-32" style="edgeStyle=orthogonalEdgeStyle;rounded=0;orthogonalLoop=1;jettySize=auto;html=1;entryX=1;entryY=0.5;entryDx=0;entryDy=0;" edge="1" parent="1" source="cQGHiPyzRJz7bQC3EvLL-23" target="cQGHiPyzRJz7bQC3EvLL-31">
          <mxGeometry relative="1" as="geometry" />
        </mxCell>
        <mxCell id="cQGHiPyzRJz7bQC3EvLL-23" value="&lt;div&gt;Contest Score&lt;/div&gt;&lt;div&gt;RDBMS&lt;/div&gt;" style="shape=cylinder3;whiteSpace=wrap;html=1;boundedLbl=1;backgroundOutline=1;size=15;" vertex="1" parent="1">
          <mxGeometry x="640" y="620" width="80" height="80" as="geometry" />
        </mxCell>
        <mxCell id="cQGHiPyzRJz7bQC3EvLL-24" style="edgeStyle=orthogonalEdgeStyle;rounded=0;orthogonalLoop=1;jettySize=auto;html=1;exitX=1;exitY=0.5;exitDx=0;exitDy=0;entryX=0;entryY=0.5;entryDx=0;entryDy=0;entryPerimeter=0;" edge="1" parent="1" source="dDHguk34ElmMT3qhyhON-37" target="cQGHiPyzRJz7bQC3EvLL-25">
          <mxGeometry relative="1" as="geometry" />
        </mxCell>
        <mxCell id="cQGHiPyzRJz7bQC3EvLL-29" style="edgeStyle=orthogonalEdgeStyle;rounded=0;orthogonalLoop=1;jettySize=auto;html=1;entryX=0.5;entryY=0;entryDx=0;entryDy=0;" edge="1" parent="1" source="cQGHiPyzRJz7bQC3EvLL-25" target="dDHguk34ElmMT3qhyhON-31">
          <mxGeometry relative="1" as="geometry" />
        </mxCell>
        <mxCell id="cQGHiPyzRJz7bQC3EvLL-25" value="&lt;div&gt;Eval&amp;nbsp;&lt;/div&gt;&lt;div&gt;DDB&lt;/div&gt;" style="shape=cylinder3;whiteSpace=wrap;html=1;boundedLbl=1;backgroundOutline=1;size=15;" vertex="1" parent="1">
          <mxGeometry x="640" y="370" width="80" height="80" as="geometry" />
        </mxCell>
        <mxCell id="cQGHiPyzRJz7bQC3EvLL-27" style="edgeStyle=orthogonalEdgeStyle;rounded=0;orthogonalLoop=1;jettySize=auto;html=1;entryX=0;entryY=0.5;entryDx=0;entryDy=0;entryPerimeter=0;" edge="1" parent="1" source="cQGHiPyzRJz7bQC3EvLL-8" target="cQGHiPyzRJz7bQC3EvLL-25">
          <mxGeometry relative="1" as="geometry" />
        </mxCell>
        <mxCell id="cQGHiPyzRJz7bQC3EvLL-30" style="edgeStyle=orthogonalEdgeStyle;rounded=0;orthogonalLoop=1;jettySize=auto;html=1;entryX=0.5;entryY=0;entryDx=0;entryDy=0;entryPerimeter=0;" edge="1" parent="1" source="dDHguk34ElmMT3qhyhON-31" target="cQGHiPyzRJz7bQC3EvLL-23">
          <mxGeometry relative="1" as="geometry" />
        </mxCell>
        <mxCell id="cQGHiPyzRJz7bQC3EvLL-38" style="edgeStyle=orthogonalEdgeStyle;rounded=0;orthogonalLoop=1;jettySize=auto;html=1;exitX=0;exitY=0.5;exitDx=0;exitDy=0;entryX=1;entryY=0.5;entryDx=0;entryDy=0;" edge="1" parent="1" source="cQGHiPyzRJz7bQC3EvLL-31" target="cQGHiPyzRJz7bQC3EvLL-33">
          <mxGeometry relative="1" as="geometry" />
        </mxCell>
        <mxCell id="cQGHiPyzRJz7bQC3EvLL-31" value="CDC" style="shape=process;whiteSpace=wrap;html=1;backgroundOutline=1;" vertex="1" parent="1">
          <mxGeometry x="400" y="630" width="80" height="60" as="geometry" />
        </mxCell>
        <mxCell id="cQGHiPyzRJz7bQC3EvLL-33" value="Leaderboard service" style="rounded=1;whiteSpace=wrap;html=1;" vertex="1" parent="1">
          <mxGeometry x="200" y="630" width="120" height="60" as="geometry" />
        </mxCell>
        <mxCell id="cQGHiPyzRJz7bQC3EvLL-34" value="&lt;div&gt;Leaderboard&lt;/div&gt;&lt;div&gt;snapshot&lt;/div&gt;" style="shape=cylinder3;whiteSpace=wrap;html=1;boundedLbl=1;backgroundOutline=1;size=15;" vertex="1" parent="1">
          <mxGeometry x="200" y="520" width="80" height="80" as="geometry" />
        </mxCell>
        <mxCell id="cQGHiPyzRJz7bQC3EvLL-35" value="&lt;div&gt;Leaderboard&lt;/div&gt;&lt;div&gt;heap&lt;/div&gt;" style="shape=cylinder3;whiteSpace=wrap;html=1;boundedLbl=1;backgroundOutline=1;size=15;" vertex="1" parent="1">
          <mxGeometry x="200" y="720" width="80" height="80" as="geometry" />
        </mxCell>
        <mxCell id="cQGHiPyzRJz7bQC3EvLL-36" style="edgeStyle=orthogonalEdgeStyle;rounded=0;orthogonalLoop=1;jettySize=auto;html=1;entryX=0.333;entryY=-0.05;entryDx=0;entryDy=0;entryPerimeter=0;startArrow=classic;startFill=1;" edge="1" parent="1" source="cQGHiPyzRJz7bQC3EvLL-34" target="cQGHiPyzRJz7bQC3EvLL-33">
          <mxGeometry relative="1" as="geometry" />
        </mxCell>
        <mxCell id="cQGHiPyzRJz7bQC3EvLL-37" style="edgeStyle=orthogonalEdgeStyle;rounded=0;orthogonalLoop=1;jettySize=auto;html=1;exitX=0.5;exitY=0;exitDx=0;exitDy=0;exitPerimeter=0;entryX=0.333;entryY=1;entryDx=0;entryDy=0;entryPerimeter=0;startArrow=classic;startFill=1;" edge="1" parent="1" source="cQGHiPyzRJz7bQC3EvLL-35" target="cQGHiPyzRJz7bQC3EvLL-33">
          <mxGeometry relative="1" as="geometry" />
        </mxCell>
        <mxCell id="cQGHiPyzRJz7bQC3EvLL-42" style="edgeStyle=orthogonalEdgeStyle;rounded=0;orthogonalLoop=1;jettySize=auto;html=1;entryX=1;entryY=0;entryDx=0;entryDy=0;" edge="1" parent="1" source="cQGHiPyzRJz7bQC3EvLL-39" target="dDHguk34ElmMT3qhyhON-37">
          <mxGeometry relative="1" as="geometry" />
        </mxCell>
        <mxCell id="cQGHiPyzRJz7bQC3EvLL-39" value="Test cases Object store" style="shape=cylinder3;whiteSpace=wrap;html=1;boundedLbl=1;backgroundOutline=1;size=15;" vertex="1" parent="1">
          <mxGeometry x="550" y="210" width="140" height="80" as="geometry" />
        </mxCell>
        <mxCell id="cQGHiPyzRJz7bQC3EvLL-40" value="&lt;div&gt;in mem&lt;/div&gt;&lt;div&gt;test cases&lt;/div&gt;" style="shape=cylinder3;whiteSpace=wrap;html=1;boundedLbl=1;backgroundOutline=1;size=15;" vertex="1" parent="1">
          <mxGeometry x="440" y="520" width="60" height="70" as="geometry" />
        </mxCell>
        <mxCell id="cQGHiPyzRJz7bQC3EvLL-41" style="edgeStyle=orthogonalEdgeStyle;rounded=0;orthogonalLoop=1;jettySize=auto;html=1;exitX=0.5;exitY=0;exitDx=0;exitDy=0;exitPerimeter=0;entryX=0.567;entryY=1.05;entryDx=0;entryDy=0;entryPerimeter=0;" edge="1" parent="1" source="cQGHiPyzRJz7bQC3EvLL-40" target="cQGHiPyzRJz7bQC3EvLL-10">
          <mxGeometry relative="1" as="geometry" />
        </mxCell>
      </root>
    </mxGraphModel>
  </diagram>
</mxfile>
